REM DIRINDEX 1\2,1\3\7,1\3\8,1\4\9,1\4\10,1\4\11,1\5\12,1\5\13,1\5\14,1\6\15,1\6\16,1\6\17
REM DIRNAME "folder01","folder02","folder03","folder04","folder05","folder06","folder07","folder08","folder09","folder10","folder11","folder12","folder13","folder14","folder15","folder16","folder17"
TITLE ""
FILE "2Q_t_1070-1086.mp3" MP3
  TRACK 01 AUDIO
    TITLE "0:"
    INDEX 01 00:00:00
  TRACK 02 AUDIO
    TITLE "7:cjc174_3928"
    INDEX 01 00:00:16
  TRACK 03 AUDIO
    TITLE "0:"
    INDEX 01 00:01:16
  TRACK 04 AUDIO
    TITLE "8:cjc174_3929"
    INDEX 01 00:02:03
  TRACK 05 AUDIO
    TITLE "0:"
    INDEX 01 00:05:10
  TRACK 06 AUDIO
    TITLE "7:cjc174_3930"
    INDEX 01 00:05:53
  TRACK 07 AUDIO
    TITLE "0:"
    INDEX 01 00:06:74
  TRACK 08 AUDIO
    TITLE "8:cjc174_3931"
    INDEX 01 00:07:46
  TRACK 09 AUDIO
    TITLE "0:"
    INDEX 01 00:09:74
  TRACK 10 AUDIO
    TITLE "7:cjc174_3932"
    INDEX 01 00:10:44
  TRACK 11 AUDIO
    TITLE "0:"
    INDEX 01 00:11:67
  TRACK 12 AUDIO
    TITLE "8:cjc174_3933"
    INDEX 01 00:12:41
  TRACK 13 AUDIO
    TITLE "0:"
    INDEX 01 00:14:07
  TRACK 14 AUDIO
    TITLE "7:cjc174_3934"
    INDEX 01 00:14:50
  TRACK 15 AUDIO
    TITLE "0:"
    INDEX 01 00:16:05
  TRACK 16 AUDIO
    TITLE "8:cjc174_3935"
    INDEX 01 00:16:56
  TRACK 17 AUDIO
    TITLE "0:"
    INDEX 01 00:19:15
  TRACK 18 AUDIO
    TITLE "7:cjc174_3936"
    INDEX 01 00:19:61
  TRACK 19 AUDIO
    TITLE "0:"
    INDEX 01 00:20:66
  TRACK 20 AUDIO
    TITLE "8:cjc174_3937"
    INDEX 01 00:21:46
  TRACK 21 AUDIO
    TITLE "0:"
    INDEX 01 00:24:05
  TRACK 22 AUDIO
    TITLE "7:cjc174_3938"
    INDEX 01 00:24:52
  TRACK 23 AUDIO
    TITLE "0:"
    INDEX 01 00:25:61
  TRACK 24 AUDIO
    TITLE "8:cjc174_3939"
    INDEX 01 00:26:33
  TRACK 25 AUDIO
    TITLE "0:"
    INDEX 01 00:28:58
  TRACK 26 AUDIO
    TITLE "7:cjc174_3940"
    INDEX 01 00:29:28
  TRACK 27 AUDIO
    TITLE "0:"
    INDEX 01 00:30:51
  TRACK 28 AUDIO
    TITLE "8:cjc174_3941"
    INDEX 01 00:31:25
  TRACK 29 AUDIO
    TITLE "0:"
    INDEX 01 00:32:67
  TRACK 30 AUDIO
    TITLE "7:cjc174_3942"
    INDEX 01 00:33:37
  TRACK 31 AUDIO
    TITLE "0:"
    INDEX 01 00:34:43
  TRACK 32 AUDIO
    TITLE "8:cjc174_3943"
    INDEX 01 00:35:16
  TRACK 33 AUDIO
    TITLE "0:"
    INDEX 01 00:36:43
  TRACK 34 AUDIO
    TITLE "7:cjc174_3944"
    INDEX 01 00:37:13
  TRACK 35 AUDIO
    TITLE "0:"
    INDEX 01 00:38:46
  TRACK 36 AUDIO
    TITLE "8:cjc174_3945"
    INDEX 01 00:39:20
  TRACK 37 AUDIO
    TITLE "0:"
    INDEX 01 00:40:33
  TRACK 38 AUDIO
    TITLE "7:cjc174_3946"
    INDEX 01 00:41:03
  TRACK 39 AUDIO
    TITLE "0:"
    INDEX 01 00:42:09
  TRACK 40 AUDIO
    TITLE "8:cjc174_3947"
    INDEX 01 00:42:56
  TRACK 41 AUDIO
    TITLE "0:"
    INDEX 01 00:44:02
  TRACK 42 AUDIO
    TITLE "7:cjc174_3948"
    INDEX 01 00:44:47
  TRACK 43 AUDIO
    TITLE "0:"
    INDEX 01 00:45:66
  TRACK 44 AUDIO
    TITLE "8:cjc174_3949"
    INDEX 01 00:46:44
  TRACK 45 AUDIO
    TITLE "0:"
    INDEX 01 00:49:05
  TRACK 46 AUDIO
    TITLE "7:cjc174_3950"
    INDEX 01 00:49:50
  TRACK 47 AUDIO
    TITLE "0:"
    INDEX 01 00:50:55
  TRACK 48 AUDIO
    TITLE "8:cjc174_3951"
    INDEX 01 00:51:33
  TRACK 49 AUDIO
    TITLE "0:"
    INDEX 01 00:54:30
  TRACK 50 AUDIO
    TITLE "7:cjc174_3952"
    INDEX 01 00:54:75
  TRACK 51 AUDIO
    TITLE "0:"
    INDEX 01 00:56:17
  TRACK 52 AUDIO
    TITLE "8:cjc174_3953"
    INDEX 01 00:56:64
  TRACK 53 AUDIO
    TITLE "0:"
    INDEX 01 00:58:10
  TRACK 54 AUDIO
    TITLE "7:cjc174_3954"
    INDEX 01 00:58:57
  TRACK 55 AUDIO
    TITLE "0:"
    INDEX 01 00:59:60
  TRACK 56 AUDIO
    TITLE "8:cjc174_3955"
    INDEX 01 01:00:34
  TRACK 57 AUDIO
    TITLE "0:"
    INDEX 01 01:03:60
  TRACK 58 AUDIO
    TITLE "7:cjc174_3956"
    INDEX 01 01:04:30
  TRACK 59 AUDIO
    TITLE "0:"
    INDEX 01 01:05:53
  TRACK 60 AUDIO
    TITLE "8:cjc174_3957"
    INDEX 01 01:06:25
  TRACK 61 AUDIO
    TITLE "0:"
    INDEX 01 01:09:15
  TRACK 62 AUDIO
    TITLE "7:cjc174_3958"
    INDEX 01 01:09:60
  TRACK 63 AUDIO
    TITLE "0:"
    INDEX 01 01:10:64
  TRACK 64 AUDIO
    TITLE "8:cjc174_3959"
    INDEX 01 01:11:48
  TRACK 65 AUDIO
    TITLE "0:"
    INDEX 01 01:13:58
  TRACK 66 AUDIO
    TITLE "2:cjc174_3960"
    INDEX 01 01:14:28
  TRACK 67 AUDIO
    TITLE "0:"
    INDEX 01 01:15:34
  TRACK 68 AUDIO
    TITLE "7:cjc174_3961"
    INDEX 01 01:16:04
  TRACK 69 AUDIO
    TITLE "0:"
    INDEX 01 01:17:36
  TRACK 70 AUDIO
    TITLE "8:cjc174_3962"
    INDEX 01 01:18:08
  TRACK 71 AUDIO
    TITLE "0:"
    INDEX 01 01:19:43
